<?xml version="1.0" encoding="utf-8"?>
<!-- Generator: Adobe Illustrator 27.9.0, SVG Export Plug-In . SVG Version: 6.00 Build 0)  -->
<svg version="1.1" id="Layer_1" xmlns="http://www.w3.org/2000/svg" xmlns:xlink="http://www.w3.org/1999/xlink" x="0px" y="0px"
	 viewBox="0 0 48 17.8" style="enable-background:new 0 0 48 17.8;" xml:space="preserve">
<style type="text/css">
	.st0{fill-rule:evenodd;clip-rule:evenodd;fill:#4FB9EA;}
	.st1{fill-rule:evenodd;clip-rule:evenodd;fill:#5AB94E;}
	.st2{fill-rule:evenodd;clip-rule:evenodd;fill:#F37F20;}
	.st3{fill-rule:evenodd;clip-rule:evenodd;fill:#FFFFFF;}
</style>
<g id="letterboxd-logo-v-neg-rgb">
	<g id="Vertical-Lockup" transform="translate(60.000000, 46.000000)">
		<g id="Dots" transform="translate(58.000000, 0.000000)">
			<ellipse id="Blue" class="st0" cx="-78.9" cy="-37.1" rx="8.9" ry="8.9"/>
			<ellipse id="Green" class="st1" cx="-94" cy="-37.1" rx="8.9" ry="8.9"/>
			<ellipse id="Orange" class="st2" cx="-109.1" cy="-37.1" rx="8.9" ry="8.9"/>
			<path id="Overlap" class="st3" d="M-101.5-32.4c-0.9-1.4-1.3-3-1.3-4.7c0-1.7,0.5-3.3,1.3-4.7c0.9,1.4,1.3,3,1.3,4.7
				C-100.2-35.4-100.7-33.8-101.5-32.4z"/>
			<path id="Overlap_00000147208875734361457250000000645280637416987016_" class="st3" d="M-86.4-41.8c0.9,1.4,1.3,3,1.3,4.7
				c0,1.7-0.5,3.3-1.3,4.7c-0.9-1.4-1.3-3-1.3-4.7C-87.8-38.8-87.3-40.5-86.4-41.8z"/>
		</g>
	</g>
</g>
</svg>
