<svg xmlns="http://www.w3.org/2000/svg" version="1.1" xmlns:xlink="http://www.w3.org/1999/xlink" width="1000" height="1000"><g clip-path="url(#SvgjsClipPath1034)"><rect width="1000" height="1000" fill="#16181b"></rect><g transform="matrix(3.1588447653429603,0,0,3.1588447653429603,150,150)"><svg xmlns="http://www.w3.org/2000/svg" version="1.1" xmlns:xlink="http://www.w3.org/1999/xlink" width="221.6" height="221.6"><svg xmlns="http://www.w3.org/2000/svg" version="1.1" xmlns:xlink="http://www.w3.org/1999/xlink" width="221.6" height="221.6"><svg id="SvgjsSvg1018" xmlns="http://www.w3.org/2000/svg" version="1.1" viewBox="0 0 221.6 221.6">
  <!-- Generator: Adobe Illustrator 29.7.1, SVG Export Plug-In . SVG Version: 2.1.1 Build 8)  -->
  <defs>
    <style>
      .st0 {
        fill: #e43f25;
      }

      .st1 {
        fill: #16181b;
      }

      .st2 {
        fill: #6a3e97;
      }

      .st3 {
        fill: #d2c52a;
      }

      .st4 {
        fill: none;
        stroke: #6e6e73;
        stroke-miterlimit: 10;
      }

      .st5 {
        fill: #4bb9ea;
      }
    </style>
  <clipPath id="SvgjsClipPath1034"><rect width="1000" height="1000" x="0" y="0" rx="350" ry="350"></rect></clipPath></defs>
  <rect class="st1" y="0" width="221.6" height="221.6"></rect>
  <line class="st4" y1="110.7" x2="221.6" y2="110.7"></line>
  <line class="st4" x1="113.4" y1="0" x2="113.4" y2="221.5"></line>
  <g id="SvgjsG1017">
    <path class="st0" d="M44.5,47.2h-13.2v-21.4h51.6v21.3h-12.9v41.8h-25.4v-41.7Z"></path>
  </g>
  <g id="SvgjsG1016">
    <path class="st3" d="M144.1,24.1l34.3,20.7v-19h19.6v63.2h-54l.2-64.8Z"></path>
  </g>
  <g id="SvgjsG1015">
    <path class="st5" d="M31.8,137.4h28.2c16.8,0,28.9,17,28.9,32.3s-13.4,30.8-30.5,30.8h-26.5l-.2-63.2Z"></path>
  </g>
  <g id="SvgjsG1014">
    <path class="st2" d="M145.5,136.4h31.9c10.1,0,17.9,9.1,17.9,18.7s-3.7,15.4-11.3,18.3l11.7,26.2h-50.2v-63.2Z"></path>
  </g>
</svg><style>@media (prefers-color-scheme: light) { :root { filter: none; } }
@media (prefers-color-scheme: dark) { :root { filter: none; } }
</style></svg></svg></g></g></svg>