<?xml version="1.0" encoding="utf-8"?>
<!-- Generator: Adobe Illustrator 27.9.0, SVG Export Plug-In . SVG Version: 6.00 Build 0)  -->
<svg version="1.1" id="Layer_1" xmlns="http://www.w3.org/2000/svg" xmlns:xlink="http://www.w3.org/1999/xlink" x="0px" y="0px"
	 viewBox="0 0 449 266.3" style="enable-background:new 0 0 449 266.3;" xml:space="preserve">
<style type="text/css">
	.st0{enable-background:new    ;}
	.st1{fill:#E43F25;}
	.st2{fill:none;stroke:#6E6E73;stroke-miterlimit:10;}
	.st3{fill:#D2C52A;}
	.st4{fill:#4BB9EA;}
	.st5{fill:#6A3E97;}
	.st6{fill:#F47F20;}
	.st7{fill:#59B94F;}
	.st8{fill:#1C6BB4;}
	.st9{fill:#D35589;}
</style>
<g>
	<g class="st0">
		<path class="st1" d="M49,40.8c0-3.8-0.1-4-2.5-4h-5.1c-8.4,0-10.8,1-14.2,8.4c-0.6,0.5-2.6,0.3-2.9-0.6c1.5-4.9,2.9-10.6,3.6-13.8
			c0.2-0.3,0.5-0.4,1-0.4c0.4,0,0.7,0.1,0.9,0.4c0.5,2.3,1.7,2.4,7.9,2.4h37.2c4.5,0,5.8-0.3,6.9-2.4c0.4-0.2,0.7-0.4,1.1-0.4
			c0.5,0,1,0.2,1.2,0.5c-0.9,3.7-1.6,11.6-1.4,14.5c-0.5,0.7-2,0.9-2.8,0.3c-1.2-7.1-2.9-8.8-12.7-8.8H62c-2.4,0-2.5,0.2-2.5,4v39.3
			c0,9.7,0.8,9.9,5.1,10.4l3.3,0.4c0.6,0.6,0.5,2.3-0.2,2.6c-5.3-0.2-9.4-0.3-13.4-0.3c-4,0-8.3,0.1-14.1,0.3
			c-0.7-0.4-0.8-2.2-0.2-2.6l3.8-0.5c4.3-0.5,5.1-0.6,5.1-10.3V40.8z"/>
	</g>
</g>
<line class="st2" x1="0" y1="133.1" x2="449" y2="133.1"/>
<line class="st2" x1="115.5" y1="0" x2="115.5" y2="266.3"/>
<line class="st2" x1="227.4" y1="0" x2="227.4" y2="266.3"/>
<line class="st2" x1="339.4" y1="0" x2="339.4" y2="266.3"/>
<g>
	<g class="st0">
		<path class="st3" d="M197.2,78c0,2.7,0,13.5,0.3,15.6c-0.7,1-2.4,1.4-3.5,1.3c-1.5-1.9-3.7-4.6-10.3-12l-21.3-24.3
			c-5.8-6.7-8.8-10.1-10.4-11.5c-0.3,0-0.3,1-0.3,5.8v17.8c0,6.8,0.1,15.2,1.6,17.9c0.8,1.4,2.4,2,4.6,2.3l2,0.3
			c0.8,0.6,0.7,2.4-0.2,2.6c-3.4-0.2-6.9-0.3-10.4-0.3c-3.8,0-6.3,0.1-9.5,0.3c-0.7-0.5-0.9-2-0.2-2.6l2-0.5c1.7-0.4,3.4-0.6,4-2.1
			c1.2-2.8,1.2-10.7,1.2-17.9V49.1c0-7.1,0.1-8.6-3-11.2c-1-0.8-3.6-1.5-4.8-1.8l-1.4-0.3c-0.6-0.5-0.5-2.4,0.4-2.6
			c3.5,0.4,8.5,0.3,10.7,0.3c1.9,0,4.1-0.1,6.3-0.3c1.5,3.9,11.5,15.4,14.7,18.9l9.1,9.8c3.8,4.2,12.3,13.8,13.2,14.4
			c0.3-0.3,0.3-0.7,0.3-2.2V56.3c0-6.8-0.1-15.2-1.7-17.9c-0.8-1.4-2.3-2-4.6-2.3l-2.1-0.3c-0.8-0.6-0.7-2.4,0.2-2.6
			c3.6,0.2,6.9,0.3,10.5,0.3c3.9,0,6.3-0.1,9.6-0.3c0.7,0.5,0.9,2,0.2,2.6l-2.1,0.5c-1.7,0.4-3.3,0.6-3.9,2.1
			c-1.3,2.8-1.3,10.7-1.3,17.9V78z"/>
	</g>
</g>
<g>
	<g class="st0">
		<path class="st4" d="M258.6,47.1c0-8.7-0.1-10-4.4-10.4l-1.9-0.2c-0.6-0.5-0.6-2.1,0.1-2.6c6.6-0.5,13.8-0.8,22.8-0.8
			c8.7,0,14.8,0.7,21.5,3.1c10.9,4,18.7,13.7,18.7,27.2c0,10.1-5,20.5-16.3,26.2c-6.5,3.3-14.3,4.4-22.6,4.4
			c-5.6,0-9.8-0.5-13.2-0.5c-3.5,0-7.6,0.1-11.6,0.3c-0.7-0.4-0.8-2-0.2-2.6l2-0.3c4.3-0.5,5.1-0.8,5.1-10.5V47.1z M269.2,76.9
			c0,8.8,0.6,13.6,10.3,13.6c16.2,0,23.5-11.5,23.5-26.9c0-18-10.5-26.8-25.7-26.8c-3.8,0-6.7,0.7-7.4,1.3c-0.6,0.5-0.7,2.5-0.7,6.7
			V76.9z"/>
	</g>
</g>
<g>
	<g class="st0">
		<path class="st5" d="M375.4,48.5c0-8.7-0.1-9.8-4.4-10.3l-2.4-0.3c-0.6-0.6-0.6-2.1,0.1-2.6c5.7-0.5,13.5-0.8,20.9-0.8
			c7.1,0,13.3,0.9,17.3,3.1c4.6,2.5,8,6.7,8,13.3c0,8.4-6.5,12.6-10.9,14.4c-0.5,0.3-0.4,1,0,1.5c7.3,12.3,11.8,20,16.1,23.6
			c2.6,2.2,5.2,2.7,6.3,2.8c0.5,0.4,0.5,1.4,0.2,1.8c-1.1,0.3-2.8,0.5-6,0.5c-8.7,0-13.5-3.6-19-12c-2.5-3.8-5-8.8-7.2-12.4
			c-1.6-2.7-2.6-3.1-5.6-3.1c-2.7,0-2.8,0.1-2.8,2v11.7c0,9.7,0.8,9.9,5.1,10.5l2,0.3c0.6,0.6,0.5,2.3-0.2,2.6
			c-4-0.2-8.1-0.3-12.1-0.3s-8.1,0.1-12.3,0.3c-0.7-0.4-1-2-0.2-2.6l2-0.3c4.3-0.5,5.1-0.8,5.1-10.5V48.5z M386,61.6
			c0,2.9,0,3.1,4.4,3.1c8.9,0,13-4.4,13-13c0-7.2-4.6-13.5-12.6-13.5c-4.7,0-4.8,0.3-4.8,4.5V61.6z"/>
	</g>
</g>
<g class="st0">
	<path class="st6" d="M37,189.3c0-8.7-0.1-9.8-4.8-10.3l-2.6-0.3c-0.7-0.6-0.7-2.1,0.1-2.6c4.5-0.4,11.8-0.8,22.8-0.8
		c8.4,0,15.1,0.7,19.6,3.1c4.6,2.5,7,6.1,7,11.8c0,5.4-4.3,9.5-11.3,11.6c-0.4,0.1-0.6,0.4-0.6,0.5c0,0.2,0.2,0.4,0.8,0.5
		c7.6,1.1,16.1,5.6,16.1,15.8c0,4.2-1.5,8.7-6.1,12.1c-4.7,3.6-11.3,5.1-22.7,5.1c-4.4,0-8.6-0.3-12.4-0.3c-4.4,0-9.1,0.1-13.5,0.3
		c-0.8-0.4-0.9-2-0.2-2.6l2.2-0.3c4.7-0.5,5.6-0.8,5.6-10.5V189.3z M48.6,199.3c0,2.4,0.3,2.5,4.3,2.5c9.4,0,13.7-3.4,13.7-11.6
		c0-8-6.5-11.2-12.7-11.2c-5,0-5.3,0.2-5.3,3.8V199.3z M48.6,220.7c0,8.3,1,11.7,9.7,11.7c6.9,0,13-4.1,13-12.2
		c0-9.4-7-14.9-18.1-14.9c-4.4,0-4.6,0.5-4.6,2.4V220.7z"/>
</g>
<g>
	<g class="st0">
		<path class="st7" d="M166.8,183.6c0-3.8-0.1-4-2.5-4h-5.1c-8.4,0-10.8,1-14.2,8.4c-0.6,0.5-2.6,0.3-2.9-0.6
			c1.5-4.9,2.9-10.6,3.6-13.8c0.2-0.3,0.5-0.4,1-0.4c0.4,0,0.7,0.1,0.9,0.4c0.5,2.3,1.7,2.4,7.9,2.4h37.2c4.5,0,5.8-0.3,6.9-2.4
			c0.4-0.2,0.7-0.4,1.1-0.4c0.5,0,1,0.2,1.2,0.5c-0.9,3.7-1.6,11.6-1.4,14.5c-0.5,0.7-2,0.9-2.8,0.3c-1.2-7.1-2.9-8.8-12.7-8.8h-5.2
			c-2.4,0-2.5,0.2-2.5,4v39.3c0,9.7,0.8,9.9,5.1,10.4l3.3,0.4c0.6,0.6,0.5,2.3-0.2,2.6c-5.3-0.2-9.4-0.3-13.4-0.3
			c-4,0-8.3,0.1-14.1,0.3c-0.7-0.4-0.8-2.2-0.2-2.6l3.8-0.5c4.3-0.5,5.1-0.6,5.1-10.3V183.6z"/>
	</g>
</g>
<g>
	<g class="st0">
		<path class="st8" d="M312,220.5c0,2.7,0,13.5,0.3,15.6c-0.7,1-2.4,1.4-3.5,1.3c-1.5-1.9-3.7-4.6-10.3-12L277.2,201
			c-5.8-6.7-8.8-10.1-10.4-11.5c-0.3,0-0.3,1-0.3,5.8v17.8c0,6.8,0.1,15.2,1.6,17.9c0.8,1.4,2.4,2,4.6,2.3l2,0.3
			c0.8,0.6,0.7,2.4-0.2,2.6c-3.4-0.2-6.9-0.3-10.4-0.3c-3.8,0-6.3,0.1-9.5,0.3c-0.7-0.5-0.9-2-0.2-2.6l2-0.5c1.7-0.4,3.4-0.6,4-2.1
			c1.2-2.8,1.2-10.7,1.2-17.9v-21.6c0-7.1,0.1-8.6-3-11.2c-1-0.8-3.6-1.5-4.8-1.8l-1.4-0.3c-0.6-0.5-0.5-2.4,0.4-2.6
			c3.5,0.4,8.5,0.3,10.7,0.3c1.9,0,4.1-0.1,6.3-0.3c1.5,3.9,11.5,15.4,14.7,18.9l9.1,9.8c3.8,4.2,12.3,13.8,13.2,14.4
			c0.3-0.3,0.3-0.7,0.3-2.2v-17.8c0-6.8-0.1-15.2-1.7-17.9c-0.8-1.4-2.3-2-4.6-2.3l-2.1-0.3c-0.8-0.6-0.7-2.4,0.2-2.6
			c3.6,0.2,6.9,0.3,10.5,0.3c3.9,0,6.3-0.1,9.6-0.3c0.7,0.5,0.9,2,0.2,2.6l-2.1,0.5c-1.7,0.4-3.3,0.6-3.9,2.1
			c-1.3,2.8-1.3,10.7-1.3,17.9V220.5z"/>
	</g>
</g>
<g>
	<g class="st0">
		<path class="st9" d="M375.3,233.4c-2-1.9-3.4-8.2-3.3-13.8c0.7-0.9,2.5-1,3.4-0.4c2,4.6,8,14.4,18.8,14.4c8.4,0,13.2-4.2,13.2-9.7
			c0-5.2-3-9.4-11.3-13.2l-4.8-2.2c-8.3-3.8-15.6-9.4-15.6-17.6c0-9,8.2-16.7,24.3-16.7c5.7,0,9.9,1.1,15.1,1.9
			c1.2,2,2.3,8,2.3,12.3c-0.6,0.8-2.5,0.9-3.5,0.3c-1.7-4.7-5.5-10.8-14.9-10.8c-8.8,0-12.5,4.7-12.5,9.6c0,3.8,3.2,7.9,10.5,11.1
			l6.9,3c7.2,3.1,15.1,8.7,15.1,17.9c0,10.4-9.6,17.8-25.6,17.8C383.2,237.2,377.5,234.5,375.3,233.4z"/>
	</g>
</g>
</svg>
