<?xml version="1.0" standalone="no"?>
<!DOCTYPE svg PUBLIC "-//W3C//DTD SVG 20010904//EN"
 "http://www.w3.org/TR/2001/REC-SVG-20010904/DTD/svg10.dtd">
<svg version="1.0" xmlns="http://www.w3.org/2000/svg"
 width="700.000000pt" height="700.000000pt" viewBox="0 0 700.000000 700.000000"
 preserveAspectRatio="xMidYMid meet">
<metadata>
Created by potrace 1.14, written by Peter Selinger 2001-2017
</metadata>
<g transform="translate(0.000000,700.000000) scale(0.100000,-0.100000)"
fill="#000000" stroke="none">
<path d="M3560 5260 l0 -1740 -1780 0 c-1576 0 -1780 -2 -1780 -15 0 -13 204
-15 1780 -15 l1780 0 0 -1745 c0 -1544 2 -1745 15 -1745 13 0 15 201 15 1745
l0 1745 1705 0 c1509 0 1705 2 1705 15 0 13 -196 15 -1705 15 l-1705 0 0 1740
c0 1540 -2 1740 -15 1740 -13 0 -15 -200 -15 -1740z"/>
<path d="M1270 6044 c-6 -14 -10 -31 -10 -37 0 -6 -18 -78 -41 -160 -43 -161
-42 -181 10 -175 19 2 33 17 58 63 41 74 98 130 149 145 48 15 354 24 373 12
20 -14 17 -1289 -3 -1337 -18 -43 -26 -47 -131 -65 -90 -15 -90 -15 -90 -45
l0 -30 375 0 375 0 0 30 c0 28 -3 30 -50 38 -117 18 -128 22 -149 50 -21 28
-21 36 -24 688 l-3 659 26 10 c60 23 340 3 401 -28 45 -23 76 -72 94 -150 12
-53 12 -53 49 -50 l36 3 7 120 c3 66 11 149 17 185 6 36 11 73 11 83 0 28 -41
20 -78 -15 l-33 -33 -602 -3 c-331 -2 -621 0 -645 3 -33 5 -45 12 -57 36 -20
37 -52 39 -65 3z"/>
<path d="M4159 5986 c-5 -6 -9 -20 -9 -33 0 -18 8 -24 43 -33 122 -31 176 -72
197 -151 8 -29 10 -208 7 -598 -4 -667 -3 -656 -110 -682 -29 -6 -60 -16 -69
-21 -19 -9 -24 -43 -8 -53 5 -3 127 -6 272 -6 221 -1 264 1 272 14 16 24 -1
46 -41 52 -21 3 -58 14 -83 23 -90 34 -100 105 -100 701 l0 435 36 -35 c42
-39 991 -1119 1042 -1185 30 -37 38 -43 61 -38 60 15 56 -39 56 696 0 713 3
758 46 805 13 13 45 27 76 34 65 15 85 31 75 60 -7 19 -17 20 -275 20 -147 0
-272 -3 -277 -6 -6 -4 -10 -15 -10 -26 0 -22 23 -33 94 -43 60 -9 100 -45 116
-105 6 -23 15 -102 20 -174 12 -173 13 -754 1 -761 -10 -6 -79 63 -237 239
-54 61 -161 178 -238 260 -228 246 -438 501 -482 586 l-14 28 -226 3 c-133 2
-229 -1 -235 -6z"/>
<path d="M1381 2498 c-221 -9 -245 -14 -239 -51 4 -25 19 -33 82 -44 37 -6 54
-15 70 -36 21 -28 21 -35 21 -660 0 -751 9 -698 -117 -718 -73 -12 -83 -19
-75 -51 l6 -24 263 -4 c580 -8 687 -1 874 61 155 52 331 167 408 268 54 71 78
117 107 211 22 67 24 94 24 250 -1 161 -3 181 -27 252 -91 273 -303 450 -619
519 -169 37 -370 44 -778 27z m611 -117 c329 -84 520 -387 488 -771 -17 -207
-72 -343 -184 -456 -106 -106 -237 -154 -417 -155 -122 -1 -194 22 -229 71
-47 66 -50 107 -49 705 0 308 4 569 8 580 6 15 3 23 -13 32 -17 10 11 12 150
13 137 0 186 -4 246 -19z"/>
<path d="M4571 2499 c-175 -9 -201 -15 -201 -49 0 -26 19 -37 78 -45 33 -4 63
-16 80 -30 l27 -23 3 -609 c2 -334 0 -628 -3 -652 -9 -58 -39 -88 -101 -96
-27 -4 -56 -9 -66 -11 -21 -6 -30 -31 -19 -52 8 -15 40 -17 338 -17 l328 0 3
32 c3 35 0 37 -80 48 -60 8 -87 30 -98 80 -5 22 -10 154 -10 293 l0 252 71 0
c67 0 73 -2 103 -32 18 -18 72 -103 120 -188 118 -206 175 -287 256 -364 108
-102 202 -136 375 -136 106 0 145 10 145 39 0 15 -12 23 -53 35 -136 39 -223
141 -457 532 -55 92 -100 171 -100 175 0 4 26 22 58 40 79 44 163 133 203 216
31 61 34 76 33 148 -2 115 -30 183 -108 261 -150 149 -340 181 -925 153z m551
-122 c118 -50 189 -196 174 -364 -16 -194 -105 -280 -306 -298 -36 -3 -81 -2
-100 3 l-35 8 -6 309 c-4 171 -8 321 -10 335 -4 24 -2 25 61 30 79 6 176 -4
222 -23z"/>
</g>
</svg>
